<svg width="105" height="105" viewBox="0 0 105 105" fill="none" xmlns="http://www.w3.org/2000/svg">
<path d="M102.236 52.2363C102.236 79.8506 79.8499 102.236 52.2356 102.236C24.6214 102.236 2.23563 79.8506 2.23563 52.2363C2.23563 24.6221 24.6214 2.23633 52.2356 2.23633C79.8499 2.23633 102.236 24.6221 102.236 52.2363Z" fill="black" fill-opacity="0.25"/>
<path d="M0 52.5C-2.70355e-07 23.5051 23.5051 2.70355e-07 52.5 0C81.4949 -2.70355e-07 105 23.5051 105 52.5C105 81.4949 81.4949 105 52.5 105C23.5051 105 2.70355e-07 81.4949 0 52.5Z" fill="black"/>
<path d="M74.0872 85.5658C79.7538 86.4633 81.7298 93.2158 76.708 95.9904C67.3076 101.184 56.1711 103.402 44.7415 101.591C43.9782 101.47 43.7688 100.493 44.401 100.049L64.3509 86.0223C65.8389 84.9762 67.6756 84.5503 69.4721 84.8348L74.0872 85.5658Z" fill="white"/>
<path d="M60.385 2.82251C87.6592 7.14233 106.267 32.7544 101.948 60.0287C100.946 66.3523 98.7987 72.209 95.7516 77.4224C93.2027 81.7835 87.1179 80.8367 85.0876 76.2113L71.3507 44.9151C68.8497 39.2173 60.714 39.3707 58.4297 45.1588L39.3283 93.5583C37.9676 97.0062 34.1249 98.842 30.7874 97.2294C11.4496 87.8856 -0.3542 66.6918 3.17881 44.3852C7.49863 17.1109 33.1107 -1.4973 60.385 2.82251Z" fill="white"/>
</svg>
