<svg width="138" height="138" viewBox="0 0 138 138" fill="none" xmlns="http://www.w3.org/2000/svg">
<circle cx="68.458" cy="68.459" r="50" fill="black" fill-opacity="0.25"/>
<rect x="16.2227" y="16.2227" width="105" height="105" rx="52.5" fill="black"/>
<path d="M90.3103 101.789C95.9769 102.686 97.9529 109.439 92.9311 112.213C83.5307 117.407 72.3942 119.624 60.9646 117.814C60.2013 117.693 59.9919 116.716 60.6241 116.272L80.574 102.245C82.062 101.199 83.8987 100.773 85.6952 101.058L90.3103 101.789Z" fill="white"/>
<path d="M76.6081 19.0454C103.882 23.3652 122.491 48.9772 118.171 76.2515C117.169 82.5752 115.022 88.4319 111.975 93.6453C109.426 98.0064 103.341 97.0596 101.311 92.4341L87.5738 61.1379C85.0728 55.4401 76.9371 55.5936 74.6528 61.3816L55.5514 109.781C54.1907 113.229 50.348 115.065 47.0105 113.452C27.6727 104.108 15.8689 82.9146 19.4019 60.6081C23.7217 33.3338 49.3338 14.7255 76.6081 19.0454Z" fill="white"/>
</svg>
